<svg width="100" height="100" viewBox="0 0 100 100" fill="none" xmlns="http://www.w3.org/2000/svg">
<rect x="39.5831" y="16.6666" width="20.8333" height="68.75" rx="2" fill="#03BF67"/>
<rect x="16.6669" y="60.4167" width="20.8333" height="66.6667" rx="2" transform="rotate(-90 16.6669 60.4167)" fill="#03BF67"/>
<path d="M100 83.8752C100 92.7808 92.7807 100 83.8752 100C74.9697 100 67.7503 92.7808 67.7503 83.8752C67.7503 74.9697 74.9697 67.7504 83.8752 67.7504C92.7807 67.7504 100 74.9697 100 83.8752ZM75.8127 83.8752C75.8127 88.328 79.4224 91.9377 83.8752 91.9377C88.3279 91.9377 91.9376 88.328 91.9376 83.8752C91.9376 79.4225 88.3279 75.8128 83.8752 75.8128C79.4224 75.8128 75.8127 79.4225 75.8127 83.8752Z" fill="#03BF67"/>
<path d="M32.2497 83.8752C32.2497 92.7808 25.0304 100 16.1249 100C7.21935 100 0 92.7808 0 83.8752C0 74.9697 7.21935 67.7504 16.1249 67.7504C25.0304 67.7504 32.2497 74.9697 32.2497 83.8752ZM8.06244 83.8752C8.06244 88.328 11.6721 91.9377 16.1249 91.9377C20.5776 91.9377 24.1873 88.328 24.1873 83.8752C24.1873 79.4225 20.5776 75.8128 16.1249 75.8128C11.6721 75.8128 8.06244 79.4225 8.06244 83.8752Z" fill="#03BF67"/>
<path d="M32.2497 16.1249C32.2497 25.0304 25.0304 32.2497 16.1249 32.2497C7.21935 32.2497 0 25.0304 0 16.1249C0 7.21935 7.21935 0 16.1249 0C25.0304 0 32.2497 7.21935 32.2497 16.1249ZM8.06244 16.1249C8.06244 20.5776 11.6721 24.1873 16.1249 24.1873C20.5776 24.1873 24.1873 20.5776 24.1873 16.1249C24.1873 11.6721 20.5776 8.06244 16.1249 8.06244C11.6721 8.06244 8.06244 11.6721 8.06244 16.1249Z" fill="#03BF67"/>
<path d="M100 16.1249C100 25.0304 92.7807 32.2497 83.8752 32.2497C74.9697 32.2497 67.7503 25.0304 67.7503 16.1249C67.7503 7.21935 74.9697 0 83.8752 0C92.7807 0 100 7.21935 100 16.1249ZM75.8127 16.1249C75.8127 20.5776 79.4224 24.1873 83.8752 24.1873C88.3279 24.1873 91.9376 20.5776 91.9376 16.1249C91.9376 11.6721 88.3279 8.06244 83.8752 8.06244C79.4224 8.06244 75.8127 11.6721 75.8127 16.1249Z" fill="#03BF67"/>
</svg>
